<svg width="34" height="38" viewBox="0 0 34 38" fill="none" xmlns="http://www.w3.org/2000/svg">
<path d="M16.5797 17.9004C15.345 17.9004 4.51993 17.7787 4.51993 13.5507C4.51993 11.881 6.22371 10.6509 9.58476 9.89324C10.3051 9.73231 11.0235 10.1837 11.1864 10.9061C11.3494 11.6285 10.8959 12.3455 10.1735 12.5078C8.52806 12.8782 7.69647 13.3008 7.34902 13.5573C8.23621 14.2364 11.5927 15.2204 16.5797 15.2204C19.522 15.2204 22.3041 14.8723 24.2133 14.2638C24.9134 14.0387 25.671 14.4287 25.8961 15.134C26.1213 15.8394 25.7313 16.5931 25.026 16.8181C22.8647 17.5052 19.7864 17.9004 16.5797 17.9004Z" fill="white"/>
<path d="M16.197 23.2603C13.4914 23.2603 7.19986 22.9541 7.19986 20.1144C7.19986 19.4968 7.50738 18.6292 8.97291 18.0076C9.65268 17.7157 10.4411 18.0351 10.7303 18.7168C10.9109 19.1408 10.8553 19.6079 10.6223 19.9678C11.6955 20.2742 13.602 20.5803 16.197 20.5803C18.2782 20.5803 20.2457 20.3736 21.5941 20.015C22.3118 19.8187 23.0433 20.2492 23.2344 20.9637C23.4248 21.6795 23.0002 22.4136 22.285 22.6033C20.6977 23.0274 18.5354 23.2603 16.197 23.2603Z" fill="white"/>
<path d="M15.8142 28.6202C12.8601 28.6202 9.87982 27.6479 9.87982 25.4743C9.87982 25.0412 10.0278 24.209 11.0189 23.5062C11.6242 23.0783 12.4597 23.2222 12.8869 23.8255C13.2362 24.3189 13.2055 24.9666 12.8535 25.4206C13.39 25.6667 14.4272 25.9402 15.8142 25.9402C16.9324 25.9402 18.0171 25.7544 18.7152 25.4443C19.3924 25.1433 20.1827 25.4482 20.4837 26.1247C20.7847 26.8013 20.4798 27.5929 19.8039 27.8939C18.7492 28.3624 17.3328 28.6202 15.8142 28.6202Z" fill="white"/>
<path d="M15.2397 33.9801C13.7309 33.9801 0.5 33.8479 0.5 29.2902C0.5 27.2056 3.20742 26.3054 4.09663 26.0083C4.80065 25.7793 5.5576 26.1549 5.79116 26.8576C6.02471 27.5589 5.64523 28.3179 4.94322 28.5521C4.024 28.8569 3.55742 29.1304 3.33177 29.3006C4.36676 30.1054 8.6792 31.3001 15.2397 31.3001C22.2229 31.3001 26.6583 29.947 27.3067 29.1501C27.3767 28.4763 27.9466 27.9502 28.6395 27.9502C29.3794 27.9502 29.9794 28.5496 29.9794 29.2902C29.9794 33.8479 16.7485 33.9801 15.2397 33.9801Z" fill="white"/>
<path d="M14.1092 38C13.4294 38 12.8654 37.9909 12.4951 37.9739C11.7563 37.9385 11.1858 37.3104 11.2212 36.571C11.2572 35.8304 11.8794 35.2429 12.6247 35.2965C13.9699 35.3607 18.2966 35.2847 20.8856 35.1485C27.0319 34.8292 30.637 33.2341 31.3169 32.5183C31.37 31.9321 31.8076 31.4296 32.4154 31.3209C33.1397 31.1888 33.8391 31.6755 33.9706 32.4031C34.0432 32.8075 34.0164 33.4303 33.4805 34.1068C31.9842 35.9925 26.8624 37.521 21.0256 37.8258C19.0157 37.9306 16.0772 38 14.1092 38Z" fill="white"/>
<path d="M27.3009 24.6003C26.8789 24.6003 26.464 24.4014 26.203 24.031C25.7777 23.4252 25.9236 22.589 26.5296 22.1636C26.5649 22.1387 30.4121 19.3541 31.2313 14.6524C31.4453 13.4276 31.2882 11.8207 30.6627 11.3613C30.2054 11.0263 29.2043 11.2161 27.9167 11.8834C27.2585 12.2236 26.451 11.9685 26.1103 11.3103C25.7694 10.6534 26.0259 9.84459 26.6827 9.50437C29.0054 8.2992 30.8774 8.19843 32.2467 9.19953C34.5354 10.8772 33.9466 14.6838 33.872 15.113C32.8572 20.9348 28.2647 24.2193 28.0697 24.3566C27.8354 24.5217 27.5664 24.6003 27.3009 24.6003Z" fill="white"/>
<path d="M15.7029 13.8805C15.3484 13.8805 14.9937 13.7404 14.7306 13.4617L13.6006 12.2697C12.3451 10.9454 12.2044 8.8975 13.267 7.40049L15.0277 4.92461C15.2692 4.5844 15.3078 4.11728 15.1258 3.73257L14.4919 2.39394C14.1752 1.72529 14.4605 0.92707 15.1292 0.6103C15.7991 0.29487 16.598 0.577604 16.914 1.24759L17.5479 2.58623C18.1473 3.85156 18.0184 5.34202 17.2116 6.47657L15.4515 8.95244C15.1388 9.39343 15.1801 10.0412 15.5451 10.4272L16.6751 11.6193C17.1841 12.1558 17.1619 13.0037 16.6247 13.5128C16.3657 13.7588 16.034 13.8805 15.7029 13.8805Z" fill="white"/>
<path d="M20.9542 13.8805C20.6198 13.8805 20.2855 13.7561 20.025 13.5062L18.9638 12.4856C17.7121 11.2804 17.5707 9.34237 18.6353 7.97627L20.2894 5.85509C20.5622 5.50442 20.629 5.19422 20.5897 5.11971C20.2481 4.46286 20.5033 3.65405 21.1603 3.31262C21.8164 2.96852 22.6265 3.2262 22.9673 3.88184C23.5333 4.97057 23.3226 6.32368 22.402 7.50259L20.7486 9.62377C20.5235 9.91293 20.5536 10.2964 20.8226 10.5541L21.8832 11.5748C22.4163 12.0877 22.4328 12.9356 21.9198 13.4696C21.657 13.7431 21.3056 13.8805 20.9542 13.8805Z" fill="white"/>
</svg>
